<svg width="24" height="24" viewBox="0 0 24 24" fill="none" xmlns="http://www.w3.org/2000/svg">
<path d="M23.4281 23.2329L16.6951 16.2308C18.4125 14.5085 19.4764 12.1341 19.4764 9.51554C19.4764 4.2684 15.208 0 9.96085 0C4.71371 0 0.445312 4.2684 0.445312 9.51554C0.445312 14.7627 4.71371 19.0311 9.96085 19.0311C12.2641 19.0311 14.3779 18.2078 16.0254 16.8416L22.7747 23.8609C22.8635 23.9538 22.9822 24 23.1014 24C23.2146 24 23.3275 23.9579 23.4154 23.8736C23.5957 23.7 23.6011 23.4132 23.4281 23.2329ZM9.96085 18.1248C5.2135 18.1248 1.35155 14.2629 1.35155 9.51554C1.35155 4.76819 5.2135 0.906242 9.96085 0.906242C14.7082 0.906242 18.5701 4.76819 18.5701 9.51554C18.5701 14.2629 14.7077 18.1248 9.96085 18.1248Z" fill="white"/>
</svg>
